# xmcd
# 
# Track frame offsets:
#     150
#     16458
#     32371
#     48747
#     64296
#     78203
#     92908
#     110689
#     127958
#     147301
#     158980
# 
# Disc length: 2379
# 
# Revision: 0
# Processed by: cddbd v1.5.2PL0 Copyright (c) Steve Scherf et al.
# Submitted via: BonkEnc v1.1beta1pre
# 
DISCID=9209490b
DTITLE=Abby Abbondanza - Promised Land
DYEAR=2008
DGENRE=Country
TTITLE0=Promised Land
TTITLE1=Miracle Man (with Scott Blasey)
TTITLE2=Slow Dancing
TTITLE3=You Done Fallen In Love
TTITLE4=Hillbilly State Of Mind
TTITLE5=I Can Help You With That
TTITLE6=That's Love Ya'll
TTITLE7=Bring It On
TTITLE8=Good Kind Of Crazy
TTITLE9=Under The Hood
TTITLE10=I've Been There Too
EXTD=
EXTT0=
EXTT1=
EXTT2=
EXTT3=
EXTT4=
EXTT5=
EXTT6=
EXTT7=
EXTT8=
EXTT9=
EXTT10=
PLAYORDER=
